<?xml version="1.0"?>
<svg width="200" height="200" viewBox="0 0 200 200" xmlns="http://www.w3.org/2000/svg" xmlns:xlink="http://www.w3.org/1999/xlink">
    <g stroke="none" stroke-width="1" fill="none" fill-rule="evenodd">
        <g transform="translate(0.000000, -0.000000)">
            <g transform="translate(0.000000, 6.000000)">
                <g transform="translate(99.999998, 94.391026) scale(-1, 1) rotate(-180.000000) translate(-99.999998, -94.391026) translate(0.000000, 0.160260)" fill-rule="nonzero">
                    <g id="g12">
                        <path d="M92.1294849,17.7185893 L95.2019207,37.094358 C95.2019207,37.094358 95.4692284,38.6358324 95.7955104,40.5891657 C95.9141002,41.2948067 96.0967925,41.8524349 96.2871771,42.2896784 L100.723715,17.7185893 L92.1294849,17.7185893 Z M178.910252,50.32705 L177.775637,49.1544218 C177.489098,48.8576911 174.95256,46.1358322 174.355765,42.0891015 C174.239739,41.3058323 174.130124,40.6385246 174.035893,40.1051913 L174.030124,40.0735887 L170.209611,50.32705 L165.655765,50.32705 L152.491022,50.32705 L146.731407,50.32705 L138.436535,50.32705 L120.301279,50.32705 L119.421151,47.7050629 C118.526279,45.0415373 117.515382,41.9485887 116.538459,38.9270503 L115.119228,50.32705 L107.792305,50.32705 L94.8358951,50.32705 L80.574998,50.32705 L79.4397416,49.1448706 C79.1551262,48.8481398 76.6416648,46.1333322 76.0301263,42.1018579 C75.9128186,41.32314 75.7993571,40.6460246 75.7032032,40.1014093 L72.9564084,22.7616661 L71.1865367,37.550576 C70.7121777,41.6498708 71.2782033,43.5704476 71.49487,44.1238451 L78.9852544,50.32705 L50.0200629,50.32705 L35.0753837,17.4314098 L35.0753837,25.5333327 L28.9891018,21.1723713 C27.4051275,20.03782 25.4106404,19.3602559 23.6533327,19.3602559 C22.3748071,19.3602559 21.4245507,19.6935251 20.8293585,20.3500636 C20.19282,21.0519226 19.9231405,22.1974994 20.0691021,23.5757045 C20.5376277,27.9960249 24.9779481,32.0557684 29.3852557,32.0928197 C30.7306403,32.0871146 32.5560889,31.6909607 33.1520505,31.342371 L36.6175632,27.1744865 L46.0085886,43.9723707 L43.9808963,46.0289091 C40.5150631,49.5435244 33.298012,51.1250628 29.2798711,51.1250628 C15.4940381,51.1250628 2.50525635,39.9276272 0.325270505,26.1641019 C-0.78024998,19.1839739 0.954025617,12.5948715 5.2088332,7.61346135 C9.40230746,2.70382686 15.5075637,0 22.4008328,0 C24.1766661,0 25.9632686,0.187299995 27.7393583,0.549378832 L48.5066014,0.549378832 L51.065191,7.01724341 L54.7290371,7.01724341 L55.1787807,0.549378832 L69.4384598,0.549378832 L75.6147417,0.549378832 L102.675638,0.549378832 L103.212177,3.93780118 L103.823715,0.549378832 L120.146792,0.549378832 L122.898715,0.549378832 L123.786535,3.15454479 C123.817946,3.24544223 126.909612,12.3121792 129.988458,21.1250636 C130.336535,22.1219225 130.684612,23.1155122 131.028843,24.0948071 L127.299356,0.549378832 L144.607048,0.549378832 L147.22756,0.549378832 L163.405124,0.549378832 L165.08397,11.1480766 L169.029483,0.549378832 L186.568585,0.549378832 L192.360252,37.1379478 L192.93397,40.5891657 C193.232687,42.3755759 193.939098,43.2539733 194.148713,43.4808322 L199.705123,50.32705 L178.910252,50.32705 L178.910252,50.32705 Z" fill="#231F20"/>
                        <path d="M130.287176,69.9955111 L135.407689,76.5397417 L137.985894,92.0147413 L142.868586,97.410895 L142.868586,117.752561 L139.193586,121.448715 C138.526279,126.917305 135.778202,142.260894 125.47692,150.21474 L128.262817,155.543586 L125.052561,157.174996 C124.991023,157.206406 124.584612,157.408329 123.88333,157.704483 L123.943587,157.91474 C125.419228,163.090381 124.003202,171.65897 118.441023,178.021149 C114.737818,182.257047 110.215382,184.503842 105.001279,184.974995 C102.124356,185.234611 99.0935873,185.143585 96.8173053,184.874354 C93.232049,185.791021 90.3403824,185.801277 90.3403824,185.801277 C90.081408,185.808329 89.8256388,185.820508 89.5615362,185.820508 C86.779485,185.820508 83.8846133,185.40897 80.9576903,184.598072 L80.8282031,184.559611 C75.2858956,182.786534 70.3801264,179.768585 65.8294855,175.335893 C62.3319856,171.928842 59.1321139,169.617303 54.6301268,167.444868 C48.8343578,164.648714 37.9442298,163.869868 33.3263453,163.939739 C35.1091658,161.786534 36.9446145,159.773073 38.3460888,158.717304 C42.0748066,155.907688 46.1443578,154.598714 50.0555757,153.998073 C46.8980116,150.083971 45.0648707,146.098714 43.4873066,142.669227 C42.4168579,140.341022 41.4923708,138.331407 40.3623067,136.768586 C37.8117298,133.237176 31.9463454,130.931407 26.811666,130.112176 C23.7282045,129.619869 19.3702559,129.519228 16.6283329,129.510253 C19.3096149,127.29551 22.2568584,125.167305 24.8134609,124.054484 C27.3062173,122.969869 29.7448711,121.804484 36.0479478,121.429484 C36.0479478,121.429484 31.5885249,118.473715 26.4127557,117.0891 C29.4884608,115.893587 32.6224351,114.799997 34.9085889,114.482689 C36.5699991,114.251279 38.7592939,114.005766 40.0230118,114.005766 L40.0245503,114.005766 C46.8384604,114.005766 52.245832,115.428202 56.1761524,118.230766 C56.3616653,114.575638 56.9721781,110.355125 58.0766652,106.524997 L58.3999344,105.460254 C58.9618575,103.70192 59.6319216,102.05128 60.4156395,100.611536 C61.8637164,97.9519206 63.641601,95.4410233 65.7096137,93.133331 L68.242947,78.6538442 L62.4303831,81.25128 L53.3904474,77.598716 L50.3936526,79.4057672 L27.1106403,68.6660239 L120.142946,5.07236526 L145.448714,60.4392293 L130.287176,69.9955111" fill="#FFFFFF"/>
                        <path d="M89.5615362,188.14038 C86.5724337,188.14038 83.4692287,187.701277 80.3384595,186.83397 L80.3141006,186.827559 L80.2903826,186.819867 L80.1608954,186.781406 L80.1410236,186.775636 L80.1211518,186.769226 C74.2301263,184.884611 69.0256393,181.688457 64.2102548,176.997431 C60.7639728,173.64038 57.7954473,171.548073 53.6220499,169.534611 C48.6718578,167.14615 38.9062811,166.255765 33.9135248,166.255765 C33.7201915,166.255765 33.5364094,166.257047 33.3614094,166.259611 L28.3308326,166.335893 L31.53923,162.460893 C33.7890376,159.742945 35.558653,157.912176 36.9501273,156.864099 C39.6319221,154.843586 42.6382041,153.390381 46.0689732,152.46474 C43.9921143,149.318586 42.5748707,146.237176 41.3796785,143.638458 C40.3603195,141.422432 39.4799349,139.507689 38.4823067,138.128202 C36.6246145,135.555766 31.7876274,133.255766 26.4463455,132.403202 C23.4380122,131.923074 18.9991662,131.838458 16.6205765,131.830125 L10.2028203,131.80833 L15.1509612,127.721792 C18.5326277,124.928202 21.4721148,122.978843 23.8874994,121.927561 L24.1839738,121.798074 C25.4056404,121.2641 26.7077557,120.694869 28.4958326,120.209612 C27.640448,119.881407 26.7370506,119.577561 25.813525,119.330766 L18.9600636,117.497433 L25.5724353,114.92692 C29.6962813,113.323715 32.4772428,112.478202 34.5893581,112.184613 C35.6685889,112.034613 38.3591016,111.685895 40.0230118,111.685895 C45.5721783,111.685895 50.3122423,112.59551 54.1719217,114.397433 C54.518973,111.431407 55.0928832,108.499356 55.8473704,105.882049 L55.8518576,105.866664 L55.8566012,105.851279 L56.1798704,104.786536 L56.1848704,104.77051 L56.1899345,104.754485 C56.8224345,102.774356 57.5585883,101.007049 58.3781396,99.5025616 C59.804678,96.8814078 61.5387164,94.3903823 63.5369215,92.0891003 L65.2057676,82.551921 L63.3769215,83.3692287 L62.4762164,83.7717928 L61.5614728,83.401921 L53.5957679,80.1839724 L51.5912808,81.3923057 L50.5383321,82.026921 L49.4217936,81.5121774 L26.1391019,70.7730752 L22.4239097,69.0596137 L25.8012814,66.7512804 L118.833971,3.1570512 L121.107689,1.60256406 L122.253202,4.10757041 L147.55833,59.4744216 L148.40256,61.3198703 L146.685894,62.4018574 L133.696792,70.5884598 L137.234612,75.1102545 L137.598715,75.5756391 L137.69615,76.1589725 L140.162176,90.9621772 L144.589099,95.8544848 L145.188458,96.5173053 L145.188458,97.410895 L145.188458,117.752561 L145.188458,118.709612 L144.513458,119.388459 L141.393586,122.526279 C140.522432,128.944869 137.633971,142.550637 128.400638,150.799355 L130.318586,154.469227 L131.405766,156.549355 L129.312817,157.612176 L126.555766,159.013458 C127.492946,164.833329 125.717305,173.223073 120.187176,179.548072 C116.166664,184.148072 111.12692,186.750636 105.209613,187.285252 C104.005767,187.394226 102.734613,187.449354 101.430767,187.449354 C99.8942283,187.449354 98.3628181,187.372431 96.9730745,187.226277 C93.5275618,188.057047 90.7596131,188.117303 90.3871772,188.121149 L90.1961516,188.126918 C89.9865362,188.13397 89.7769208,188.14038 89.5615362,188.14038 L89.5615362,188.14038 Z M89.5615362,185.820508 C89.8256388,185.820508 90.081408,185.808329 90.3403824,185.801277 C90.3403824,185.801277 93.232049,185.791021 96.8173053,184.874354 C98.1564078,185.032688 99.7551257,185.129483 101.430767,185.129483 C102.604485,185.129483 103.816023,185.082047 105.001279,184.974995 C110.215382,184.503842 114.737818,182.257047 118.441023,178.021149 C124.003202,171.65897 125.419228,163.090381 123.943587,157.91474 L123.88333,157.704483 C124.584612,157.408329 124.991023,157.206406 125.052561,157.174996 L128.262817,155.543586 L125.47692,150.21474 C135.778202,142.260894 138.526279,126.917305 139.193586,121.448715 L142.868586,117.752561 L142.868586,97.410895 L137.985894,92.0147413 L135.407689,76.5397417 L130.287176,69.9955111 L145.448714,60.4392293 L120.142946,5.07236526 L27.1106403,68.6660239 L50.3933962,79.4057672 L53.3904474,77.598716 L62.4303831,81.25128 L68.242947,78.6538442 L65.7096137,93.133331 C63.641601,95.4410233 61.8637164,97.9519206 60.4156395,100.611536 C59.6316652,102.05128 58.9618575,103.70192 58.3999344,105.460254 L58.0766652,106.524997 C56.9721781,110.355125 56.3616653,114.575638 56.1761524,118.230766 C52.245832,115.428202 46.8384604,114.005766 40.0245503,114.005766 L40.0230118,114.005766 C38.7592939,114.005766 36.5699991,114.251279 34.9085889,114.482689 C32.6224351,114.799997 29.4884608,115.893587 26.4127557,117.0891 C31.5885249,118.473715 36.0479478,121.429484 36.0479478,121.429484 C29.7448711,121.804484 27.3062173,122.969869 24.8134609,124.054484 C22.2568584,125.167305 19.3096149,127.29551 16.6283329,129.510253 C19.3702559,129.519228 23.7282045,129.619869 26.811666,130.112176 C31.9463454,130.931407 37.8117298,133.237176 40.3623067,136.768586 C41.4923708,138.331407 42.4168579,140.341022 43.4873066,142.669227 C45.0648707,146.098714 46.8980116,150.083971 50.0555757,153.998073 C46.1443578,154.598714 42.0748066,155.907688 38.3460888,158.716663 C36.9446145,159.773073 35.1091658,161.786534 33.3263453,163.939739 C33.512371,163.937175 33.7076915,163.935893 33.9135248,163.935893 C38.8126272,163.935893 49.0677552,164.760893 54.6301268,167.444868 C59.1321139,169.617303 62.3319856,171.928842 65.8288445,175.335893 C70.3801264,179.768585 75.2858956,182.786534 80.8282031,184.559611 L80.9576903,184.598072 C83.8846133,185.40897 86.779485,185.820508 89.5615362,185.820508 L89.5615362,185.820508 Z" id="path18" fill="#231F20"/>
                        <polyline id="path20" fill="#EECC0A" points="135.693586 62.390319 116.371792 31.7583325 57.9332037 67.416024 42.9985246 62.3775625 118.705766 10.3517946 140.974355 59.0717934 135.693586 62.390319"/>
                        <path d="M115.835254,175.654483 C112.383972,179.600637 108.512818,181.238457 104.830126,181.582688 C105.372433,181.27179 105.916023,180.938457 106.462818,180.574995 C111.364741,177.314098 114.813459,171.144868 114.724997,160.376278 C117.02692,159.941022 119.007689,159.412817 120.592305,158.908329 C121.780125,163.073714 120.443587,170.38397 115.835254,175.654483" id="path22" fill="#891B2F"/>
                        <path d="M103.544228,177.562816 C99.1416642,180.966662 91.9032028,183.944867 81.8737159,181.164098 C77.2961519,179.699996 72.7467931,177.154483 68.2403829,172.764098 C64.6333317,169.249355 60.7899985,166.455765 56.1098063,164.223073 C49.1473706,160.900637 41.4255118,160.896791 41.4255118,160.896791 C47.8633321,156.360894 58.1317293,156.982047 58.1317293,156.982047 C48.4474988,149.521791 47.2453193,140.294868 43.1728194,134.65833 C39.6990375,129.851279 32.1016018,127.237176 26.6633968,127.00833 C26.6633968,127.00833 36.9057683,122.444869 46.6751911,126.631407 C46.0687168,124.184612 43.9224989,120.724997 36.3231401,117.702561 C49.86205,116.716664 54.764614,121.192946 56.5942935,123.348074 C57.361537,126.635894 59.3014088,132.980125 63.8732035,139.828202 C66.7743573,144.174355 70.1724341,147.932689 74.2608956,151.315381 C79.1705108,155.378842 84.5384594,157.85897 89.705767,159.338458 C81.7147415,166.564739 67.4993573,161.169868 65.2743573,160.035893 C83.2442287,169.667303 92.8788438,163.121791 95.7749976,160.671791 C98.8916642,161.157047 101.819869,161.326919 104.3891,161.326919 C105.919228,161.326919 107.467305,161.266663 108.9891,161.14615 C109.787177,161.082688 110.55192,160.999355 111.300638,160.907688 C111.151279,164.420509 109.997433,172.573073 103.544228,177.562816" id="path24" fill="#891B2F"/>
                        <path d="M118.392305,67.2801265 L74.5269212,92.3147413 L74.5269212,113.867305 L63.0431394,119.867305 C68.7980752,148.426919 96.7371771,152.842945 109.886536,147.70833 C112.978843,146.501278 114.628202,145.610253 116.553202,144.056407 C118.478202,142.502561 119.844869,140.867945 121.067946,139.160253 L87.5506388,119.614741 L124.634612,132.826279 C124.925638,132.00833 125.181407,131.155125 125.399356,130.265381 L125.442946,130.280766 L135.861535,119.801279 C135.553202,123.136535 133.270509,142.109612 120.894869,149.01474 L123.496151,153.991022 C123.496151,153.991022 117.810253,156.880765 108.719228,157.598714 C99.4916642,158.32756 86.6346132,156.972432 76.4602545,148.55256 C72.2038443,145.030766 69.1544855,141.416663 66.7583317,137.82692 C60.6608318,128.692946 59.5983318,121.515382 59.5983318,120.539741 C59.5983318,114.680766 60.980319,106.905126 63.4675625,102.337818 C65.1692291,99.212818 67.1544855,96.710254 68.9634598,94.7974335 L71.9852546,77.5249981 L116.221151,57.7243575 L132.117304,78.0410237 L134.709612,93.5974336 L125.519228,83.4891005 L118.392305,67.2801265" id="path26" fill="#EECC0A"/>
                        <polyline id="path28" fill="#891B2F" points="128.146151 67.1711522 116.982048 52.9902551 62.3627549 77.3961519 53.0854474 73.6493571 51.5314731 74.5865366 50.1790372 75.4019212 34.2695504 68.0634598 39.8167298 64.2782035 58.6743575 70.2717931 112.822433 37.6232042 116.011536 30.0467941 121.04551 44.4353194 133.344868 63.7141651 128.146151 67.1711522"/>
                        <path d="M136.406407,100.35128 L133.806407,97.6044847 L133.806407,116.976279 L136.336535,114.657048 L136.406407,114.591664 L136.406407,100.35128 Z M130.686535,94.308972 L127.498074,90.9403823 L127.498074,122.907689 L130.686535,119.931407 L130.686535,94.308972 Z M83.3666646,110.821792 L87.3602542,112.153843 L87.3602542,99.7948693 L83.3666646,100.966023 L83.3666646,110.821792 Z M118.619869,122.581407 L122.873074,123.999997 L122.873074,89.3788439 L118.619869,90.6262798 L118.619869,122.581407 Z M109.741664,119.619869 L113.994869,121.038459 L113.994869,91.98269 L109.741664,93.2301259 L109.741664,119.619869 Z M96.2384591,97.1910232 L91.9852541,98.4384591 L91.9852541,113.696792 L96.2384591,115.115382 L96.2384591,97.1910232 Z M100.863459,116.65833 L105.116023,118.07692 L105.116023,94.5865361 L100.863459,95.834613 L100.863459,116.65833 Z M135.861535,119.801279 L125.442946,130.280766 L125.399356,130.265381 L78.6865365,114.172433 L78.6865365,97.4301258 L125.424997,83.3749979 L125.519228,83.4891005 L139.378843,98.8019206 L139.378843,116.264741 L135.861535,119.801279 L135.861535,119.801279 Z" id="path30" fill="#891B2F"/>
                        <path d="M93.6224336,37.3680119 C93.6224336,37.3680119 93.8891002,38.9057683 94.2153823,40.85314 C94.6698694,43.5712169 95.9570489,44.6860245 95.9730745,44.7005117 L97.2967924,45.7173707 L102.416664,17.3610252 L91.8948695,26.4756404 L91.8948695,26.4756404 L93.6224336,37.3680119 Z M55.3299986,22.4025635 L55.419664,22.5571148 L55.4299986,22.4025635 L55.3299986,22.4025635 Z M179.589098,48.724486 L178.928201,48.0398706 C178.676919,47.7814732 176.464739,45.4064091 175.941662,41.8551913 C175.822432,41.0539092 175.710252,40.3723708 175.607688,39.7883964 L174.65897,33.7988453 L169.096791,48.724486 L159.074355,48.724486 L153.859612,48.724486 L142.156407,48.724486 L139.119227,48.724486 L121.453843,48.724486 L120.939741,47.1947424 C119.404484,42.6237169 117.52692,36.7858324 116.061536,32.2090377 L115.844228,32.1704479 L113.703202,48.724486 L101.212177,48.724486 L96.7538437,48.724486 L81.2576903,48.724486 L80.5955108,48.0353834 C80.3467929,47.7757039 78.1519211,45.4044219 77.6153827,41.8622425 C77.4948699,41.0679477 77.3794852,40.3780759 77.274357,39.7839093 L76.6711519,35.973076 L76.6711519,35.973076 C76.6711519,35.973076 72.3320495,38.896217 69.4205111,41.4069861 C69.5288444,43.7660245 70.0416649,44.8405117 70.1743572,45.0821143 L72.0282033,48.724486 L51.0519218,48.724486 L33.4728197,10.0300639 L33.4728197,22.414102 L29.9226275,19.8698072 C28.0764096,18.5474354 25.7329481,17.7576919 23.6533327,17.7576919 C22.4506405,17.7576919 20.7780123,18.0205765 19.6419226,19.2738457 C18.6949354,20.3185251 18.2805124,21.9062815 18.4755765,23.7442302 C19.0226918,28.9089736 24.2162173,33.6518581 29.3719864,33.6953838 C29.394807,33.6953838 29.417307,33.696153 29.4401275,33.696153 C31.3716659,33.696153 33.8226274,33.0218581 34.2688453,32.5057684 L36.3579478,29.9930121 L44.0226912,43.7039092 L42.8398066,44.9030758 C39.7333323,48.0543578 32.9119223,49.5224988 29.2798711,49.5224988 C16.2487175,49.5224988 3.97010246,38.9312811 1.90805123,25.9142301 C0.876903824,19.4037816 2.4819743,13.2737176 6.42756394,8.65461517 C10.3114741,4.10707041 15.9841022,1.60256406 22.4008328,1.60256406 C24.841025,1.60256406 27.3064096,1.9704038 29.7300634,2.69681404 C29.8903198,2.74489096 30.0518582,2.80248711 30.2130762,2.85381403 L29.8941018,2.15194225 L47.4171142,2.15194225 L49.9754475,8.61980748 L56.223973,8.61980748 L56.6736524,2.15194225 L71.3141008,2.15194225 L73.8089725,2.15194225 L101.306408,2.15194225 L103.108331,13.5308971 L105.162818,2.15194225 L121.752561,2.15194225 L122.269869,3.67187811 C122.301279,3.76226914 125.394869,12.834551 128.475638,21.6539097 C129.584612,24.8274994 130.694869,27.9787814 131.672433,30.7031403 C132.869227,34.0384607 133.732689,36.3589093 134.239099,37.6006401 C134.537176,38.3313452 134.82692,38.9928836 135.107048,39.5985888 L129.176279,2.15194225 L143.313458,2.15194225 L145.860253,2.15194225 L146.483971,2.15194225 L149.110253,2.15194225 L162.036534,2.15194225 L164.457047,17.4276278 L170.143585,2.15194225 L185.199354,2.15194225 L190.7782,37.3935888 L191.353841,40.85314 C191.80897,43.575704 193.087816,44.6917297 193.102559,44.7065373 L196.371149,48.724486 L179.589098,48.724486 L179.589098,48.724486 Z" id="path32" fill="#FFFFFF"/>
                        <path d="M52.088332,20.1589739 L52.705832,21.7993584 L55.3603191,28.8526916 C55.7792294,29.9532044 56.1320499,30.9492941 56.4395499,31.8757684 C56.4853832,32.0122428 56.5397422,32.16423 56.5830114,32.2969223 C56.9163447,33.3295504 57.1955114,34.2973709 57.4185883,35.199294 C57.3567934,34.176153 57.3171781,33.1340376 57.2991652,32.0710889 C57.2979473,32.0051915 57.3029473,31.9371146 57.3019216,31.8712172 C57.2891652,30.872371 57.2996781,29.8680121 57.3457678,28.8526916 L57.6669857,21.8391661 L57.7439088,20.1589739 L52.088332,20.1589739 Z M69.1820496,21.9321148 L67.9999983,31.8101274 L67.366024,37.1083965 C66.540383,44.2417938 68.4115368,46.4808963 68.4115368,46.4808963 L52.4969859,46.4808963 L45.8894219,31.9353197 L41.2422426,21.7064738 L33.3776274,4.39553194 L45.8916655,4.39553194 L48.4502552,10.8633972 L58.3170498,10.8633972 L58.7667934,4.39553194 L71.2807674,4.39553194 L69.1820496,21.9321148 L69.1820496,21.9321148 Z" id="path34" fill="#891B2F"/>
                        <path d="M123.066664,46.4808963 C121.586535,42.0725631 119.772433,36.4415376 118.198715,31.5257043 C116.976279,27.7063455 115.905125,24.3396789 115.246792,22.3039097 C115.104484,21.8642302 114.974356,21.4648713 114.873715,21.1603841 L114.732048,22.2999353 L113.580125,31.5519864 L111.721792,46.4808963 L99.4391001,46.4808963 L102.122433,31.6166018 L103.821151,22.2115379 L107.037177,4.39553194 L120.146792,4.39553194 C120.146792,4.39553194 123.238458,13.4640381 126.357689,22.3943584 C127.469228,25.5744224 128.581407,28.7314736 129.560894,31.4608325 C130.66474,34.5372427 131.599356,37.0685888 132.162176,38.4487811 C134.62692,44.4884604 136.659612,46.4808963 136.659612,46.4808963 L123.066664,46.4808963" id="path36" fill="#891B2F"/>
                        <path d="M176.521149,31.1941659 C176.320508,29.896089 176.153201,28.7487172 176.018585,27.7544224 C175.84038,26.4403199 175.723073,25.4133968 175.66538,24.6712173 L173.22756,31.2129479 L167.538457,46.4808963 L155.776278,46.4808963 L153.376278,31.3256402 L151.993586,22.6006405 L149.110253,4.39553194 L160.120509,4.39553194 L162.374996,18.6242944 C162.642945,20.3180123 162.853201,21.6724354 163.006406,22.6898071 C163.099996,23.3103199 163.172432,23.8063456 163.223714,24.1749353 C163.357047,25.1474994 163.446791,25.9044224 163.492945,26.4460891 L164.885893,22.7050635 L171.701919,4.39553194 L183.283329,4.39553194 L186.208329,22.8768584 L187.51538,31.1320505 L188.563457,37.7519221 C188.563457,37.7519221 188.591021,37.9216657 188.641021,38.2198708 C188.74038,38.8178836 188.924995,39.929358 189.141021,41.2244861 C189.766021,44.9614091 191.729482,46.4808963 191.729482,46.4808963 L180.54038,46.4808963 C180.54038,46.4808963 178.594226,44.4678835 178.160893,41.5262169 C178.038457,40.7013451 177.923072,39.9987169 177.823714,39.4371144 L177.579483,37.8956401 L177.575637,37.873076 L176.723073,32.4922428 C176.65256,32.0435248 176.585252,31.6116018 176.521149,31.1941659" id="path38" fill="#891B2F"/>
                        <path d="M78.274357,31.7517941 L76.7288442,21.9937174 L73.9416648,4.39553194 L99.3903821,4.39553194 L100.891023,13.8724356 L87.6249978,13.8724356 L88.9282029,22.091602 L90.4493567,31.6826915 L90.4493567,31.6826915 L91.4115362,37.7519221 C91.4115362,37.7519221 91.6775618,39.2833324 92.0025618,41.2244861 C92.6275618,44.9614091 94.6064079,46.4808963 94.6064079,46.4808963 L82.2134595,46.4808963 C82.2134595,46.4808963 80.2788441,44.4661527 79.8333313,41.5262169 C79.7102544,40.7116656 79.5916647,40.0032682 79.4903826,39.4325631 L79.2435878,37.873076 L78.274357,31.7517941" id="path40" fill="#891B2F"/>
                        <path d="M136.083971,31.4242941 L134.664099,22.460961 L131.802561,4.39553194 L143.946791,4.39553194 L146.847432,22.559102 L148.251278,31.3551915 L149.273073,37.7519221 C149.273073,37.7519221 149.539099,39.2833324 149.864099,41.2244861 C150.48974,44.9614091 152.468586,46.4808963 152.468586,46.4808963 L140.075638,46.4808963 C140.075638,46.4808963 138.140381,44.4661527 137.694868,41.5262169 C137.57115,40.7116656 137.453202,40.0032682 137.35192,39.4325631 L137.105766,37.873076 L136.083971,31.4242941" id="path42" fill="#891B2F"/>
                        <path d="M29.2798711,47.2789091 C17.2864098,47.2789091 6.02364088,37.5563452 4.12409605,25.562884 C2.22455764,13.5692304 10.4076279,3.84615375 22.4008328,3.84615375 C24.674743,3.84615375 26.9217942,4.19746784 29.0845506,4.84549988 C29.8099352,5.06285244 30.5253197,5.31550628 31.22923,5.59820499 L31.22923,18.0461534 C29.04673,16.4826278 26.2542301,15.5141022 23.6533327,15.5141022 C21.2780764,15.5141022 19.3161534,16.2930765 17.9792944,17.7674355 C16.5975637,19.2923713 15.9810893,21.4981405 16.2442304,23.9808968 C16.9192944,30.3517941 23.0456404,35.8851914 29.3532044,35.9389735 C31.1455761,35.9545504 34.7919222,35.3853837 35.9938453,33.9398068 L41.2422426,43.3283323 C38.8326272,45.7717296 32.8610889,47.2789091 29.2798711,47.2789091" id="path44" fill="#891B2F"/>
                    </g>
                </g>
            </g>
        </g>
    </g>
</svg>