<?xml version="1.0" encoding="utf-8"?>
<!-- Generator: Adobe Illustrator 23.0.1, SVG Export Plug-In . SVG Version: 6.00 Build 0)  -->
<svg version="1.1" id="Layer_2" xmlns="http://www.w3.org/2000/svg" xmlns:xlink="http://www.w3.org/1999/xlink" x="0px" y="0px"
	 viewBox="0 0 216 108" style="enable-background:new 0 0 216 108;" xml:space="preserve">
<style type="text/css">
	.st0{fill:#8C2232;}
	.st1{fill:#F2CD14;}
	.st2{fill:#C32032;}
	.st3{fill:#FFFFFF;}
</style>
<g>
	<path class="st0" d="M145.65,56.06l-2.5-1.63v-3.26l-4.37-2.85c-0.37-0.24-0.65-0.31-0.82-0.19c-0.17,0.12-0.26,0.43-0.26,0.93
		v6.94c0,0.5,0.09,0.92,0.26,1.27c0.18,0.35,0.44,0.64,0.81,0.88l6.87,4.44V56.06L145.65,56.06z"/>
	<path class="st0" d="M145.65,65.92l-7.71-5.04c-0.95-0.62-1.7-1.4-2.25-2.34s-0.82-1.9-0.82-2.89V45.7c0-0.99,0.28-1.59,0.82-1.81
		c0.55-0.22,1.3-0.02,2.25,0.6l7.71,5.04v-8.8v0L129.1,30.07v0.54v16.06v8.27v8.27l16.54,10.68V65.92L145.65,65.92z"/>
	<path class="st1" d="M145.65,62.58l-6.87-4.44c-0.37-0.24-0.64-0.53-0.81-0.88c-0.17-0.35-0.26-0.77-0.26-1.27v-6.94
		c0-0.5,0.09-0.81,0.26-0.93c0.17-0.12,0.44-0.05,0.82,0.19l4.37,2.85v3.26l2.5,1.63v-6.54v0l-7.71-5.04
		c-0.95-0.62-1.7-0.82-2.25-0.6c-0.55,0.22-0.82,0.82-0.82,1.81v9.96c0,0.99,0.28,1.95,0.82,2.89s1.3,1.72,2.25,2.34l7.71,5.04
		V62.58L145.65,62.58z"/>
	<path class="st2" d="M145.65,62.58l6.87-4.44c0.37-0.24,0.64-0.53,0.81-0.88c0.17-0.35,0.26-0.77,0.26-1.27v-6.94
		c0-0.5-0.09-0.81-0.26-0.93c-0.17-0.12-0.44-0.05-0.82,0.19l-4.37,2.85v3.26l-2.5,1.63v0V62.58z"/>
	<path class="st2" d="M145.65,40.72L145.65,40.72v8.81l7.71-5.04c0.95-0.62,1.7-0.82,2.25-0.6c0.55,0.22,0.82,0.82,0.82,1.81v9.96
		c0,0.99-0.28,1.95-0.82,2.89c-0.55,0.94-1.3,1.72-2.25,2.34l-7.71,5.04v0v7.98l16.54-10.68v-8.27v-8.27V30.61v-0.54L145.65,40.72z"
		/>
	<path class="st3" d="M145.65,56.06l2.5-1.63v-3.26l4.37-2.85c0.37-0.24,0.65-0.31,0.82-0.19c0.17,0.12,0.26,0.43,0.26,0.93v6.94
		c0,0.5-0.09,0.92-0.26,1.27c-0.18,0.35-0.44,0.64-0.81,0.88l-6.87,4.44v0v3.34l7.71-5.04c0.95-0.62,1.7-1.4,2.25-2.34
		c0.55-0.94,0.82-1.9,0.82-2.89V45.7c0-0.99-0.28-1.59-0.82-1.81c-0.55-0.22-1.3-0.02-2.25,0.6l-7.71,5.04v0V56.06z"/>
</g>
<path class="st1" d="M177.24,59.21c-0.55-0.28-0.92-0.57-1.12-0.85c-0.2-0.29-0.3-0.62-0.3-1c0-0.57,0.24-1.04,0.73-1.41
	c0.49-0.37,1.09-0.56,1.82-0.56c0.66,0,1.2,0.15,1.63,0.44c0.43,0.3,0.64,0.68,0.64,1.15c0,0.7-0.5,1.35-1.5,1.93
	c0.76,0.37,1.26,0.72,1.51,1.05c0.25,0.33,0.37,0.73,0.37,1.19c0,0.63-0.28,1.16-0.85,1.58c-0.57,0.42-1.25,0.62-2.04,0.62
	c-0.79,0-1.44-0.18-1.95-0.53c-0.5-0.36-0.76-0.83-0.76-1.42C175.42,60.52,176.03,59.79,177.24,59.21z M177.74,59.42
	c-0.74,0.44-1.12,1.06-1.12,1.85c0,0.5,0.14,0.89,0.43,1.19c0.29,0.29,0.68,0.44,1.17,0.44c0.45,0,0.83-0.13,1.14-0.4
	c0.31-0.26,0.46-0.61,0.46-1.03c0-0.4-0.14-0.75-0.42-1.04C179.12,60.14,178.57,59.8,177.74,59.42z M178.63,58.7
	c0.54-0.44,0.81-0.95,0.81-1.54c0-0.42-0.11-0.75-0.33-0.98s-0.51-0.35-0.87-0.35c-0.36,0-0.66,0.1-0.89,0.31
	c-0.23,0.21-0.35,0.49-0.35,0.86c0,0.36,0.12,0.66,0.37,0.9C177.64,58.14,178.05,58.41,178.63,58.7z"/>
<path class="st1" d="M194.67,55.67c-1.19,0.24-2.07,0.65-2.66,1.24s-0.97,1.32-1.15,2.18l0.01,0.01c0.46-0.5,1.07-0.75,1.81-0.75
	c0.69,0,1.26,0.23,1.73,0.68c0.47,0.46,0.7,1.04,0.7,1.74c0,0.74-0.26,1.36-0.77,1.85c-0.51,0.49-1.15,0.74-1.92,0.74
	c-0.84,0-1.53-0.3-2.05-0.91c-0.52-0.6-0.78-1.38-0.78-2.34c0-1.17,0.41-2.21,1.22-3.11c0.81-0.9,2.07-1.48,3.77-1.74L194.67,55.67z
	 M193.92,61.1c0-0.67-0.15-1.21-0.46-1.62c-0.31-0.42-0.7-0.62-1.18-0.62c-0.44,0-0.79,0.16-1.07,0.46
	c-0.27,0.31-0.41,0.73-0.41,1.26c0,0.65,0.16,1.21,0.48,1.67c0.32,0.46,0.73,0.7,1.22,0.7c0.43,0,0.77-0.18,1.03-0.53
	C193.79,62.05,193.92,61.62,193.92,61.1z"/>
<path class="st1" d="M171.96,62.57c-0.1-0.04-0.16-0.13-0.16-0.29v-6.63l-0.07-0.06c-0.7,0.18-1.34,0.34-2.03,0.49v0.4l1.01,0.14
	c0.02,0.84,0.02,1.8,0.02,2.88v1.34c0,0.53,0,1.02-0.01,1.46c0,0.14-0.06,0.22-0.15,0.26l-0.87,0.31v0.34l3.17,0v-0.32L171.96,62.57
	z"/>
<path class="st1" d="M188.32,55.54h-5.14v2.1h0.28l0.33-1.16h3.64l-3.27,6.76h1.18c0.09-0.3,0.2-0.61,0.32-0.96
	c0.13-0.38,0.28-0.79,0.44-1.21c0.16-0.42,0.33-0.85,0.51-1.3c0.18-0.44,0.37-0.89,0.56-1.34c0.19-0.45,0.39-0.9,0.59-1.34
	c0.2-0.44,0.4-0.87,0.6-1.29L188.32,55.54z"/>
<g>
	<path class="st3" d="M39.04,45.95h-1.36l-1.93-4.75c-0.89-0.28-1.85-0.42-2.89-0.42c-2.49,0-4.42,0.93-5.78,2.8
		c-1.36,1.87-2.05,4.31-2.05,7.33c0,3.22,0.8,5.79,2.41,7.71c1.61,1.92,3.84,2.88,6.69,2.88c1.59,0,3.26-0.32,5.02-0.96l0.22,0.96
		c-2.25,1.53-4.8,2.3-7.64,2.3c-3.69,0-6.67-1.11-8.94-3.33c-2.27-2.22-3.41-5.15-3.41-8.78c0-3.87,1.25-6.93,3.74-9.18
		s5.74-3.38,9.76-3.38c1.98,0,4.01,0.23,6.09,0.69l0.08,0.17V45.95z"/>
	<path class="st3" d="M51.3,61.84c-1.43,1.21-2.95,1.81-4.55,1.81c-1.57,0-2.86-0.39-3.87-1.18c-1.01-0.78-1.52-1.89-1.52-3.31
		c0-1.77,0.82-3.07,2.46-3.89c1.64-0.82,4.1-1.23,7.38-1.23l0.02-1.27c0.01-1.21-0.28-2.09-0.87-2.66
		c-0.59-0.57-1.51-0.85-2.76-0.85c-1.16,0-2.55,0.25-4.18,0.76l-0.47-1.35c2.4-1.09,4.71-1.64,6.93-1.64c2.03,0,3.55,0.45,4.56,1.36
		c1.01,0.91,1.51,2.21,1.5,3.92l-0.08,7.04c-0.02,0.58-0.01,0.93,0.03,1.28c0.05,0.35,0.2,0.76,0.55,1.07
		c0.49,0.44,1.1,0.55,1.89,0.7v0.83c0,0-2.99,0-4.11,0S51.72,62.68,51.3,61.84z M51.2,55.65c-1.77,0-3.03,0.23-3.79,0.68
		c-0.76,0.45-1.13,1.22-1.13,2.32c0,0.99,0.27,1.7,0.8,2.12c0.54,0.42,1.17,0.63,1.9,0.63c0.83,0,1.56-0.21,2.18-0.64L51.2,55.65z"
		/>
	<polygon class="st3" points="91.76,42.2 91.76,45.91 96.56,42.82 96.56,39.11 	"/>
	<path class="st3" d="M91.73,49.6v9.5c0,1.04-0.01,1.78-0.03,2.22c-0.02,0.27-0.16,0.44-0.42,0.51l-2.09,0.59v0.81h9.95v-0.81
		l-2.14-0.59c-0.26-0.08-0.4-0.27-0.42-0.58c-0.02-0.53-0.03-1.46-0.03-2.81V46.51L91.73,49.6z"/>
	<path class="st3" d="M67.28,61.32c-0.02-0.44-0.03-1.18-0.03-2.22V38.08v-2.08l-4.8,3.09v19.35c0,1.34-0.01,2.28-0.03,2.81
		c-0.02,0.31-0.16,0.5-0.42,0.58l-2.14,0.59v0.81h9.98v-0.81l-2.13-0.59C67.44,61.76,67.3,61.59,67.28,61.32z"/>
	<path class="st3" d="M119.49,61.83c-0.28-0.08-0.43-0.27-0.44-0.58c-0.02-0.68-0.03-1.72-0.03-3.13v-5.94
		c0-1.65-0.47-2.92-1.4-3.81c-0.94-0.9-2.23-1.34-3.87-1.34c-1.86,0-3.74,0.63-5.65,1.89v-0.25v-1.25h-2.68h-4.66v0.81l0.07,0.02
		l2.06,0.57c0.23,0.06,0.36,0.22,0.38,0.46c0,0.02,0.01,0.03,0.01,0.05c0.01,0.72,0.02,1.41,0.02,2.07v7.84
		c0,0.66-0.01,1.36-0.02,2.08c-0.01,0.27-0.14,0.44-0.39,0.51l-2.13,0.59v0.81h9.54v-0.81l-1.78-0.54
		c-0.25-0.07-0.38-0.25-0.39-0.56c-0.02-1.17-0.03-2.46-0.03-3.87v-7.27c0.99-0.54,1.96-0.81,2.89-0.81c1.07,0,1.88,0.3,2.42,0.91
		c0.54,0.6,0.81,1.6,0.81,2.98v7.09c0,0.54-0.01,0.9-0.02,1.07c-0.02,0.26-0.16,0.43-0.42,0.51l-1.66,0.51v0.81h9.44v-0.81
		L119.49,61.83z"/>
	<path class="st3" d="M82.6,47.42v0.81l1.8,0.51c-0.87,2.34-1.75,4.65-2.65,6.92c-0.28,0.69-0.56,1.42-0.85,2.2
		c-0.27-0.8-0.54-1.53-0.8-2.2c-0.98-2.5-1.83-4.81-2.55-6.92l1.76-0.51v-0.81h-9.13v0.81l1.69,0.47c0.32,0.11,0.56,0.37,0.74,0.76
		l5.56,13.77l2.34,0c0.6-1.51,1.48-3.66,2.64-6.47c1.19-2.87,2.22-5.33,3.1-7.38c0.16-0.35,0.38-0.57,0.66-0.66l1.78-0.49v-0.81
		H82.6z"/>
</g>
<g>
	<path class="st3" d="M41.56,75.11v-4.43h1.35v4.38c0,1.43,0.74,2.19,1.95,2.19c1.2,0,1.94-0.71,1.94-2.13v-4.43h1.35v4.37
		c0,2.3-1.3,3.45-3.31,3.45C42.84,78.5,41.56,77.34,41.56,75.11z"/>
	<path class="st3" d="M51.3,70.67h1.25L56.68,76v-5.33h1.33v7.7h-1.13l-4.25-5.48v5.48H51.3V70.67z"/>
	<path class="st3" d="M61.35,70.67h1.35v7.7h-1.35V70.67z"/>
	<path class="st3" d="M65.39,70.67h1.5l2.32,5.92l2.31-5.92h1.46l-3.19,7.76h-1.21L65.39,70.67z"/>
	<path class="st3" d="M75.58,70.67h5.71v1.21h-4.36v2h3.86v1.22h-3.86v2.06h4.41v1.21h-5.76V70.67z"/>
	<path class="st3" d="M84.24,70.67h3.43c0.97,0,1.73,0.29,2.22,0.77c0.41,0.42,0.64,0.99,0.64,1.66v0.02c0,1.26-0.76,2.02-1.83,2.33
		l2.08,2.92h-1.61l-1.89-2.68h-1.69v2.68h-1.35V70.67z M87.57,74.49c0.97,0,1.58-0.51,1.58-1.29v-0.02c0-0.83-0.59-1.28-1.6-1.28
		h-1.97v2.59H87.57z"/>
	<path class="st3" d="M92.96,77.25l0.81-0.97c0.74,0.64,1.49,1,2.43,1c0.84,0,1.36-0.4,1.36-0.97V76.3c0-0.55-0.31-0.85-1.74-1.18
		c-1.64-0.4-2.56-0.88-2.56-2.3V72.8c0-1.32,1.1-2.23,2.63-2.23c1.12,0,2.01,0.34,2.79,0.97l-0.73,1.02
		c-0.69-0.52-1.39-0.79-2.09-0.79c-0.79,0-1.25,0.41-1.25,0.91v0.02c0,0.59,0.35,0.86,1.84,1.21c1.63,0.4,2.46,0.98,2.46,2.26v0.02
		c0,1.44-1.13,2.3-2.75,2.3C95,78.49,93.89,78.08,92.96,77.25z"/>
	<path class="st3" d="M101.89,70.67h1.35v7.7h-1.35V70.67z"/>
	<path class="st3" d="M108.46,71.93h-2.45v-1.25h6.26v1.25h-2.45v6.45h-1.35V71.93z"/>
	<path class="st3" d="M117.23,75.34l-3.06-4.67h1.61l2.15,3.4l2.18-3.4h1.55l-3.06,4.63v3.07h-1.36V75.34z"/>
</g>
</svg>
